<svg xmlns="http://www.w3.org/2000/svg" version="1.1" xmlns:xlink="http://www.w3.org/1999/xlink" xmlns:svgjs="http://svgjs.dev/svgjs" width="2000" height="2940" viewBox="0 0 2000 2940"><g transform="matrix(1,0,0,1,-2.2857089679665705,1.190283400809676)"><svg viewBox="0 0 168 247" data-background-color="#000000" preserveAspectRatio="xMidYMid meet" height="2940" width="2000" xmlns="http://www.w3.org/2000/svg" xmlns:xlink="http://www.w3.org/1999/xlink"><g id="tight-bounds" transform="matrix(1,0,0,1,0.19199955330918783,-0.09999999999999432)"><svg viewBox="0 0 167.61600089338165 247.2" height="247.2" width="167.61600089338165"><g><svg viewBox="0 0 167.61600089338165 247.2" height="247.2" width="167.61600089338165"><g><svg viewBox="0 0 403.3087633143471 594.7995761736563" height="247.2" width="167.61600089338165"><g><rect width="397.4975999999999" height="7.30898468339418" x="2.905581657173599" y="422.4422310719234" fill="#0074d9" opacity="1" stroke-width="0" stroke="transparent" fill-opacity="1" class="rect-qz-0" data-fill-palette-color="primary" rx="1%" id="qz-0" data-palette-color="#0074d9"></rect></g><g transform="matrix(1,0,0,1,3.894381657173568,448.88468351289396)"><svg viewBox="0 0 395.52 145.9148926607623" height="145.9148926607623" width="395.52"><g id="textblocktransform"><svg viewBox="0 0 395.52 145.9148926607623" height="145.9148926607623" width="395.52" id="textblock"><g><svg viewBox="0 0 395.52 81.04791574567676" height="81.04791574567676" width="395.52"><g transform="matrix(1,0,0,1,0,0)"><svg width="395.52" viewBox="0 -37.99 187.75 38.480000000000004" height="81.04791574567676" data-palette-color="#0074d9"><g class="wordmark-text-0" data-fill-palette-color="primary" id="text-0"><path d="M17.6-13.6L25.05-35.69 31.1-35.69 18.6 0 12.45 0 0-35.69 6.01-35.69 13.45-13.5Q14.04-11.91 14.7-9.41 15.36-6.91 15.55-5.69L15.55-5.69Q15.87-7.54 16.53-9.99 17.19-12.43 17.6-13.6L17.6-13.6ZM56.2 0L52.1 0 50.95-3.76 50.75-3.76Q48.8-1.29 46.82-0.4 44.85 0.49 41.75 0.49L41.75 0.49Q37.77 0.49 35.53-1.66 33.3-3.81 33.3-7.74L33.3-7.74Q33.3-11.91 36.4-14.04 39.5-16.16 45.85-16.36L45.85-16.36 50.51-16.5 50.51-17.94Q50.51-20.53 49.3-21.81 48.09-23.1 45.55-23.1L45.55-23.1Q43.48-23.1 41.57-22.49 39.67-21.88 37.91-21.04L37.91-21.04 36.06-25.15Q38.25-26.29 40.87-26.89 43.48-27.49 45.8-27.49L45.8-27.49Q50.95-27.49 53.57-25.24 56.2-23 56.2-18.19L56.2-18.19 56.2 0ZM43.55-3.91L43.55-3.91Q46.68-3.91 48.57-5.65 50.46-7.4 50.46-10.55L50.46-10.55 50.46-12.89 46.99-12.74Q42.94-12.6 41.1-11.39 39.26-10.18 39.26-7.69L39.26-7.69Q39.26-5.88 40.33-4.9 41.4-3.91 43.55-3.91ZM69.94-37.99L69.94 0 64.2 0 64.2-37.99 69.94-37.99ZM101.9-17.6L101.9 0 96.14 0 96.14-16.6Q96.14-19.73 94.88-21.26 93.62-22.8 90.89-22.8L90.89-22.8Q87.27-22.8 85.58-20.64 83.88-18.48 83.88-13.4L83.88-13.4 83.88 0 78.14 0 78.14-37.99 83.88-37.99 83.88-28.34Q83.88-26.03 83.59-23.39L83.59-23.39 83.95-23.39Q85.12-25.34 87.21-26.42 89.3-27.49 92.08-27.49L92.08-27.49Q101.9-27.49 101.9-17.6L101.9-17.6ZM130.87 0L126.77 0 125.62-3.76 125.43-3.76Q123.48-1.29 121.5-0.4 119.52 0.49 116.42 0.49L116.42 0.49Q112.44 0.49 110.21-1.66 107.97-3.81 107.97-7.74L107.97-7.74Q107.97-11.91 111.07-14.04 114.17-16.16 120.52-16.36L120.52-16.36 125.19-16.5 125.19-17.94Q125.19-20.53 123.98-21.81 122.77-23.1 120.23-23.1L120.23-23.1Q118.15-23.1 116.25-22.49 114.35-21.88 112.59-21.04L112.59-21.04 110.73-25.15Q112.93-26.29 115.54-26.89 118.15-27.49 120.47-27.49L120.47-27.49Q125.62-27.49 128.25-25.24 130.87-23 130.87-18.19L130.87-18.19 130.87 0ZM118.23-3.91L118.23-3.91Q121.35-3.91 123.24-5.65 125.14-7.4 125.14-10.55L125.14-10.55 125.14-12.89 121.67-12.74Q117.62-12.6 115.77-11.39 113.93-10.18 113.93-7.69L113.93-7.69Q113.93-5.88 115-4.9 116.08-3.91 118.23-3.91ZM144.62-37.99L144.62 0 138.88 0 138.88-37.99 144.62-37.99ZM158.55-37.99L158.55 0 152.82 0 152.82-37.99 158.55-37.99ZM187.75 0L183.65 0 182.5-3.76 182.31-3.76Q180.35-1.29 178.38-0.4 176.4 0.49 173.3 0.49L173.3 0.49Q169.32 0.49 167.08-1.66 164.85-3.81 164.85-7.74L164.85-7.74Q164.85-11.91 167.95-14.04 171.05-16.16 177.4-16.36L177.4-16.36 182.06-16.5 182.06-17.94Q182.06-20.53 180.85-21.81 179.65-23.1 177.11-23.1L177.11-23.1Q175.03-23.1 173.13-22.49 171.22-21.88 169.46-21.04L169.46-21.04 167.61-25.15Q169.81-26.29 172.42-26.89 175.03-27.49 177.35-27.49L177.35-27.49Q182.5-27.49 185.13-25.24 187.75-23 187.75-18.19L187.75-18.19 187.75 0ZM175.1-3.91L175.1-3.91Q178.23-3.91 180.12-5.65 182.01-7.4 182.01-10.55L182.01-10.55 182.01-12.89 178.55-12.74Q174.49-12.6 172.65-11.39 170.81-10.18 170.81-7.69L170.81-7.69Q170.81-5.88 171.88-4.9 172.96-3.91 175.1-3.91Z" fill="#0074d9" data-fill-palette-color="primary"></path></g></svg></g></svg></g><g transform="matrix(1,0,0,1,0,100.18138350325314)"><svg viewBox="0 0 395.52 45.733509157509154" height="45.733509157509154" width="395.52"><g transform="matrix(1,0,0,1,0,0)"><svg width="395.52" viewBox="1 -37.35 409.46 47.35" height="45.733509157509154" data-palette-color="#ff851b"><path d="M11.9 0L6.6-0.1 2.7 0.15Q1 0.15 1-0.55L1-0.55Q1-1.2 1.85-1.3L1.85-1.3Q2.85-1.35 3.75-2.25L3.75-2.25Q4.55-3.05 5-6.55L5-6.55Q5.05-7.2 5.2-8.35 5.35-9.5 5.45-10.5 5.55-11.5 5.75-13.18 5.95-14.85 6.2-16.98 6.45-19.1 6.9-22.95L6.9-22.95Q7.9-30.85 7.9-30.95L7.9-30.95Q7.9-33.3 4.9-33.65L4.9-33.65Q3.65-33.8 3.6-33.85L3.6-33.85Q3.2-34 3.2-34.45L3.2-34.45Q3.2-35.2 4.55-35.2L4.55-35.2Q5.1-35.2 6.6-35.02 8.1-34.85 9.5-34.85 10.9-34.85 12.48-35.02 14.05-35.2 14.4-35.2L14.4-35.2Q15.3-35.2 15.3-34.45L15.3-34.45Q15.3-34.1 14.83-33.98 14.35-33.85 13.68-33.68 13-33.5 12.58-33 12.15-32.5 11.88-31.3 11.6-30.1 11.23-27.13 10.85-24.15 10.55-22.4 10.25-20.65 10.25-20.1 10.25-19.55 10.38-19.45 10.5-19.35 10.85-19.35L10.85-19.35 27.5-19.2 28.5-19.2Q29.35-19.2 29.6-19.55 29.85-19.9 29.95-20.78 30.05-21.65 30.3-23.95L30.3-23.95Q30.95-29.95 30.95-30.25L30.95-30.25Q30.95-32.65 28.95-33.5L28.95-33.5Q28.7-33.6 28-33.7L28-33.7Q26.25-33.85 26.25-34.48 26.25-35.1 27.6-35.1L27.6-35.1 32.95-34.95 37.25-35.15Q38.35-35.15 38.35-34.4L38.35-34.4Q38.35-34 37.35-33.77 36.35-33.55 36-33.1L36-33.1Q34.95-31.85 34.43-26.75 33.9-21.65 33.2-16.32 32.5-11 32.15-8.38 31.8-5.75 31.8-5.1 31.8-4.45 31.85-3.95 31.9-3.45 31.98-3.1 32.05-2.75 32.23-2.48 32.4-2.2 32.5-2 32.6-1.8 32.88-1.68 33.15-1.55 33.25-1.5L33.25-1.5Q33.55-1.25 34.1-1.25L34.1-1.25 34.9-1.2Q36.55-1.1 36.55-0.3L36.55-0.3Q36.55 0.3 35.65 0.3L35.65 0.3 30.55-0.15Q29.1-0.15 27.75 0.05 26.4 0.25 26.05 0.25L26.05 0.25Q24.45 0.25 24.45-0.4 24.45-1.05 25.2-1.13 25.95-1.2 26.4-1.5 26.85-1.8 27.1-2.05 27.35-2.3 27.5-2.95L27.5-2.95Q27.8-3.95 27.9-4.8L27.9-4.8 28-5.6Q29.4-15.55 29.4-16.25 29.4-16.95 29.13-17.07 28.85-17.2 27.7-17.2L27.7-17.2 22.7-17.15 10.95-17.15Q10.1-17.15 9.98-17 9.85-16.85 9.75-15.9L9.75-15.9 9.4-13.3Q8.35-6.05 8.35-5.08 8.35-4.1 8.5-3.5 8.65-2.9 8.8-2.55 8.95-2.2 9.35-1.93 9.75-1.65 9.9-1.6L9.9-1.6Q10.95-1.25 11.35-1.2 11.75-1.15 11.85-1.1 11.95-1.05 12.13-1.03 12.3-1 12.38-0.95 12.45-0.9 12.55-0.8L12.55-0.8Q12.7-0.7 12.7-0.45L12.7-0.45Q12.7 0 11.9 0L11.9 0ZM46.8-27Q46.3-27 45.47-28.1 44.65-29.2 44.65-29.63 44.65-30.05 45.6-31.18 46.55-32.3 47.2-32.3 47.85-32.3 48.47-31.35 49.1-30.4 49.1-29.68 49.1-28.95 48.2-27.98 47.3-27 46.8-27ZM42.3-19.15L42.3-19.15 40.05-19.2Q39.35-19.2 39.35-19.8L39.35-19.8Q39.35-20.5 40.5-20.5L40.5-20.5 41-20.5Q41.9-20.5 43.52-20.73 45.15-20.95 46.7-20.95L46.7-20.95Q47.4-20.95 47.4-20.4L47.4-20.4Q47.4-19.75 46.82-17.8 46.25-15.85 46.05-14.6L46.05-14.6Q44.55-5.15 44.55-4.65 44.55-4.15 44.85-3.73 45.15-3.3 45.55-3.3L45.55-3.3Q46.55-3.3 47.47-4.6 48.4-5.9 48.65-5.9L48.65-5.9Q49.15-5.9 49.15-5.4 49.15-4.9 48.65-3.9 48.15-2.9 47.7-2.45L47.7-2.45Q44.95 0.5 43.1 0.5 41.25 0.5 41.25-3.65L41.25-3.65Q41.25-5.65 42.37-11.23 43.5-16.8 43.5-17.75 43.5-18.7 43.25-18.93 43-19.15 42.3-19.15ZM52.75-0.8L52.75-0.8Q53.45-1.05 53.95-1.2 54.45-1.35 54.45-1.43 54.45-1.5 54.3-1.7L54.3-1.7Q53.85-2.4 53.85-3.53 53.85-4.65 54.35-5.4 54.85-6.15 55.32-6.53 55.8-6.9 55.8-7 55.8-7.1 55.27-7.58 54.75-8.05 54.2-9.5 53.65-10.95 53.65-13.48 53.65-16 55.72-18.68 57.8-21.35 61.1-21.35L61.1-21.35Q62.25-21.35 64.09-20.7 65.95-20.05 66.65-20.05 67.34-20.05 68.59-20.6 69.84-21.15 70.27-21.15 70.7-21.15 71.17-20.85 71.65-20.55 71.65-19.95 71.65-19.35 71.15-18.82 70.65-18.3 69.84-18.3 69.05-18.3 68.15-18.5 67.25-18.7 67.15-18.7L67.15-18.7Q66.55-18.7 66.55-18.25L66.55-18.25Q66.55-18.15 66.75-17.6L66.75-17.6Q67.45-16.05 67.45-14.35L67.45-14.35Q67.45-11.55 65.42-8.65 63.4-5.75 60.3-5.75L60.3-5.75Q58.95-5.75 57.8-6.08 56.65-6.4 56.52-6.4 56.4-6.4 56.25-6.3L56.25-6.3Q55.85-5.85 55.85-4.58 55.85-3.3 57.85-2.35 59.85-1.4 62.22-0.88 64.59-0.35 66.59 0.98 68.59 2.3 68.59 4.35L68.59 4.35Q68.59 7.35 66.32 8.55 64.05 9.75 59.82 9.75 55.6 9.75 52.62 8.22 49.65 6.7 49.65 3.58 49.65 0.45 52.75-0.8ZM52.4 3.05L52.4 3.05Q52.4 5.7 54.67 7.1 56.95 8.5 59.8 8.5L59.8 8.5Q65.4 8.5 65.4 5.25L65.4 5.25Q65.4 4.4 63.62 3.38 61.85 2.35 58.95 1.2L58.95 1.2Q55.4-0.25 54.95-0.7L54.95-0.7Q54.3-0.7 53.35 0.5 52.4 1.7 52.4 3.05ZM60.9-20.05Q59.3-20.05 57.97-18.03 56.65-16 56.65-12.88 56.65-9.75 57.62-8.33 58.6-6.9 60.2-6.9 61.8-6.9 63.17-8.88 64.55-10.85 64.55-13.9 64.55-16.95 63.52-18.5 62.5-20.05 60.9-20.05ZM76.64-35.25L76.64-35.25 74.59-35.2Q73.94-35.2 73.94-35.77 73.94-36.35 76.07-36.52 78.19-36.7 79.54-37.02 80.89-37.35 81.24-37.35L81.24-37.35Q81.84-37.35 81.84-36.7L81.84-36.7Q81.84-36.6 80.34-28.43 78.84-20.25 78.84-17.55L78.84-17.55Q78.84-17 79.02-17 79.19-17 79.84-17.68 80.49-18.35 81.32-19.13 82.14-19.9 83.52-20.58 84.89-21.25 86.29-21.25L86.29-21.25Q90.74-21.25 90.74-15.6L90.74-15.6Q90.74-14.1 90.14-10.35 89.54-6.6 89.54-5.5L89.54-5.5Q89.54-3.2 90.74-3.2L90.74-3.2Q91.39-3.2 92.34-3.78 93.29-4.35 93.72-4.88 94.14-5.4 94.44-5.78 94.74-6.15 94.89-6.15L94.89-6.15Q95.39-6.15 95.39-5.75L95.39-5.75Q95.39-4.05 92.99-1.95 90.59 0.15 88.89 0.15L88.89 0.15Q86.44 0.15 86.44-4.5L86.44-4.5Q86.44-6.05 86.89-9.63 87.34-13.2 87.34-14.7L87.34-14.7Q87.34-18.6 84.49-18.6L84.49-18.6Q82.79-18.6 81.09-17.6L81.09-17.6Q78.59-16.1 77.79-11.3L77.79-11.3Q77.49-9.45 77.12-6.15 76.74-2.85 76.57-1.7 76.39-0.55 75.97-0.25 75.54 0.05 74.69 0.05L74.69 0.05Q73.04 0.05 73.04-1.15L73.04-1.15Q73.04-1.85 73.69-5.58 74.34-9.3 74.49-10.28 74.64-11.25 75.59-17.65 76.54-24.05 77.29-29 78.04-33.95 78.04-34.1L78.04-34.1Q78.04-35.25 76.64-35.25ZM108.44 2L108.44 2Q108.44 0.15 109.06-1.18 109.69-2.5 110.41-3 111.14-3.5 111.76-3.85 112.39-4.2 112.39-4.42 112.39-4.65 111.76-5.5 111.14-6.35 110.41-7.43 109.69-8.5 109.06-10.55 108.44-12.6 108.44-14.98 108.44-17.35 108.96-19.88 109.49-22.4 110.91-25.33 112.34-28.25 114.51-30.53 116.69-32.8 120.36-34.33 124.04-35.85 128.64-35.85L128.64-35.85Q134.14-35.85 137.69-33.35L137.69-33.35Q138.44-32.8 138.69-32.55 138.94-32.3 139.81-31.6 140.69-30.9 141.59-29.75L141.59-29.75Q145.14-24.95 145.14-17.98 145.14-11 140.61-5.63 136.09-0.25 129.99 0.5L129.99 0.5Q127.74 0.75 127.51 0.98 127.29 1.2 127.29 1.38 127.29 1.55 129.61 2.83 131.94 4.1 135.14 5.43 138.34 6.75 139.91 6.75 141.49 6.75 142.46 6.13 143.44 5.5 143.91 4.9 144.39 4.3 144.64 4.3L144.64 4.3Q145.04 4.3 145.04 4.8L145.04 4.8Q145.04 6.2 143.01 8.1 140.99 10 138.46 10 135.94 10 131.81 8.15 127.69 6.3 124.34 4.1L124.34 4.1Q115.44-1.85 113.84-1.85 112.24-1.85 111.09-0.45 109.94 0.95 109.94 2.53 109.94 4.1 110.51 5.33 111.09 6.55 111.09 6.65L111.09 6.65Q111.09 7.3 110.49 7.3L110.49 7.3Q108.44 7.3 108.44 2ZM112.69-16.3L112.69-16.3Q112.69-9.8 116.26-5.25 119.84-0.7 126.69-0.7L126.69-0.7Q130.14-0.7 132.91-2.4 135.69-4.1 137.39-6.9L137.39-6.9Q140.84-12.65 140.84-19.45L140.84-19.45Q140.84-24.55 138.94-27.8L138.94-27.8Q137.49-30.35 134.49-32.38 131.49-34.4 127.74-34.4L127.74-34.4Q121.44-34.4 117.06-29.55 112.69-24.7 112.69-16.3ZM147.84-14.7L147.84-14.7Q147.84-16.6 149.51-19 151.19-21.4 153.49-21.4L153.49-21.4Q154.28-21.4 154.74-20.55L154.74-20.55Q155.39-19.45 155.39-17.48 155.39-15.5 154.46-10.63 153.53-5.75 153.53-4.55 153.53-3.35 153.84-2.98 154.14-2.6 154.41-2.6 154.69-2.6 154.96-2.68 155.24-2.75 155.53-2.93 155.84-3.1 156.09-3.3 156.34-3.5 156.71-3.85 157.09-4.2 157.31-4.45 157.53-4.7 157.96-5.18 158.39-5.65 158.64-5.95L158.64-5.95Q159.39-6.85 160.14-7.75L160.14-7.75Q163.69-12.05 165.94-20.7L165.94-20.7Q166.14-21.5 167.59-21.5 169.04-21.5 169.04-20.4L169.04-20.4Q169.04-19.9 167.51-12.85 165.99-5.8 165.99-4.5 165.99-3.2 167.09-3.2L167.09-3.2Q169.19-3.2 170.54-6L170.54-6Q170.99-6.9 171.39-6.9L171.39-6.9Q172.09-6.9 172.09-5.7 172.09-4.5 169.74-2.02 167.39 0.45 164.28 0.45L164.28 0.45Q162.78 0.45 162.78-2.25L162.78-2.25Q162.78-4.75 163.24-7.25 163.69-9.75 163.69-10.08 163.69-10.4 163.51-10.4 163.34-10.4 163.14-10.08 162.94-9.75 162.49-8.93 162.03-8.1 161.39-7.2L161.39-7.2Q155.94 0.55 151.78 0.55L151.78 0.55Q150.09 0.55 150.09-2.55 150.09-5.65 151.21-10.5 152.34-15.35 152.34-16.5 152.34-17.65 151.34-17.65L151.34-17.65Q150.99-17.65 150.28-16.78 149.59-15.9 149.19-14.98 148.78-14.05 148.31-14.05 147.84-14.05 147.84-14.7ZM179.73 0.75Q176.83 0.75 175.76-0.98 174.68-2.7 174.68-6.03 174.68-9.35 177.58-13.95 180.48-18.55 184.23-20.35L184.23-20.35Q186.08-21.25 187.36-21.25 188.63-21.25 189.96-20.98 191.28-20.7 191.96-20.7 192.63-20.7 193.43-21.93 194.23-23.15 194.76-23.15 195.28-23.15 195.28-22.55 195.28-21.95 194.86-20.75 194.43-19.55 194.33-19.15 194.23-18.75 193.23-13.18 192.23-7.6 192.23-6.35 192.23-5.1 192.73-4.15 193.23-3.2 194.03-3.2 194.83-3.2 196.01-4.83 197.18-6.45 197.61-6.45 198.03-6.45 198.03-5.73 198.03-5 197.06-3.6 196.08-2.2 194.66-0.93 193.23 0.35 192.06 0.35 190.88 0.35 190.18-1.05 189.48-2.45 189.36-3.85 189.23-5.25 189.18-5.25 189.13-5.25 188.61-4.63 188.08-4 187.21-3.13 186.33-2.25 185.28-1.4L185.28-1.4Q182.63 0.75 179.73 0.75ZM178.43-8.7L178.43-8.7Q178.18-7.2 178.18-5.7 178.18-4.2 179.31-3.1 180.43-2 182.41-2 184.38-2 186.11-3.58 187.83-5.15 188.43-6.35 189.03-7.55 189.68-10.5L189.68-10.5Q191.03-17 191.03-18.07 191.03-19.15 189.93-19.58 188.83-20 187.48-20 186.13-20 184.38-18.9 182.63-17.8 181.53-15.95L181.53-15.95Q178.93-11.65 178.43-8.7ZM204.23-35.25L204.23-35.25 202.78-35.2Q201.33-35.2 201.33-35.88 201.33-36.55 202.08-36.6L202.08-36.6Q204.08-36.75 205.83-37.05 207.58-37.35 208.13-37.35L208.13-37.35Q209.18-37.35 209.18-36.55L209.18-36.55Q209.18-36.15 208.96-35.4 208.73-34.65 208.31-32.33 207.88-30 207.58-27.83 207.28-25.65 207.01-22.78 206.73-19.9 205.68-12.75 204.63-5.6 204.63-4.63 204.63-3.65 204.78-3.3 204.93-2.95 205.66-2.95 206.38-2.95 207.13-3.5 207.88-4.05 208.28-4.7L208.28-4.7Q209.23-6.5 209.98-6.5L209.98-6.5Q210.58-6.5 210.58-5.75 210.58-5 208.08-2.1L208.08-2.1Q207.18-1.05 205.86-0.33 204.53 0.4 203.86 0.4 203.18 0.4 202.88 0.3 202.58 0.2 202.18-0.2L202.18-0.2Q201.28-0.95 201.28-4.3L201.28-4.3Q201.28-6.45 201.98-10.1 202.68-13.75 202.78-14.5 202.88-15.25 203.26-18.65 203.63-22.05 204.56-27.98 205.48-33.9 205.48-34.25L205.48-34.25Q205.48-35.25 204.23-35.25ZM220.48-27Q219.98-27 219.15-28.1 218.33-29.2 218.33-29.63 218.33-30.05 219.28-31.18 220.23-32.3 220.88-32.3 221.53-32.3 222.15-31.35 222.78-30.4 222.78-29.68 222.78-28.95 221.88-27.98 220.98-27 220.48-27ZM215.98-19.15L215.98-19.15 213.73-19.2Q213.03-19.2 213.03-19.8L213.03-19.8Q213.03-20.5 214.18-20.5L214.18-20.5 214.68-20.5Q215.58-20.5 217.2-20.73 218.83-20.95 220.38-20.95L220.38-20.95Q221.08-20.95 221.08-20.4L221.08-20.4Q221.08-19.75 220.5-17.8 219.93-15.85 219.73-14.6L219.73-14.6Q218.23-5.15 218.23-4.65 218.23-4.15 218.53-3.73 218.83-3.3 219.23-3.3L219.23-3.3Q220.23-3.3 221.15-4.6 222.08-5.9 222.33-5.9L222.33-5.9Q222.83-5.9 222.83-5.4 222.83-4.9 222.33-3.9 221.83-2.9 221.38-2.45L221.38-2.45Q218.63 0.5 216.78 0.5 214.93 0.5 214.93-3.65L214.93-3.65Q214.93-5.65 216.05-11.23 217.18-16.8 217.18-17.75 217.18-18.7 216.93-18.93 216.68-19.15 215.98-19.15ZM237.33-18.45L237.33-18.45 233.28-18.7Q232.63-18.7 232.43-18.5 232.23-18.3 232.13-18.18 232.03-18.05 231.98-17.75 231.93-17.45 231.88-17.25 231.83-17.05 231.78-16.55 231.73-16.05 231.63-15.3 231.53-14.55 231.13-12L231.13-12Q230.08-5.85 230.08-5 230.08-4.15 230.6-3.48 231.13-2.8 231.48-2.7 231.83-2.6 232.58-2.6 233.33-2.6 234.33-3.15 235.33-3.7 235.93-4.25 236.53-4.8 236.83-4.8L236.83-4.8Q237.38-4.8 237.38-4.1L237.38-4.1Q237.38-3 234.78-1.2 232.18 0.6 230.03 0.6L230.03 0.6Q228.73 0.6 227.78-0.45 226.83-1.5 226.83-4.15 226.83-6.8 227.88-12.35 228.93-17.9 228.93-18.15L228.93-18.15Q228.93-18.65 227.45-18.7 225.98-18.75 225.98-19.5L225.98-19.5Q225.98-19.9 226.5-20.23 227.03-20.55 228.1-21.18 229.18-21.8 229.93-22.6 230.68-23.4 231.23-24.05 231.78-24.7 232.03-24.95L232.03-24.95Q232.48-25.5 232.98-25.5 233.48-25.5 233.48-24.9L233.48-24.9Q233.48-24.6 233.03-23.08 232.58-21.55 232.58-21.23 232.58-20.9 232.85-20.85 233.13-20.8 234.33-20.8L234.33-20.8 237.23-20.85Q238.53-20.85 238.53-19.95 238.53-19.05 238.28-18.75 238.03-18.45 237.33-18.45ZM239.82 6.25L239.82 6.25Q239.82 5.6 240.3 5.1 240.77 4.6 241.57 4.6 242.37 4.6 243.47 5.43 244.57 6.25 245.77 6.25L245.77 6.25Q247.72 6.25 249.85 2.98 251.97-0.3 251.97-2.4 251.97-4.5 248.8-11.13 245.62-17.75 243.82-17.75L243.82-17.75Q242.57-17.75 242.05-16.82 241.52-15.9 241.3-14.95 241.07-14 240.47-14L240.47-14Q239.97-14 239.97-15.18 239.97-16.35 240.32-17.73 240.67-19.1 241.65-20.33 242.62-21.55 244.15-21.55 245.67-21.55 247.55-19.33 249.42-17.1 250.72-14.45 252.02-11.8 253.02-9.58 254.02-7.35 254.17-7.35L254.17-7.35Q254.67-7.35 255.32-10.45 255.97-13.55 255.97-16.05L255.97-16.05Q255.97-16.8 255.35-18 254.72-19.2 254.72-19.9 254.72-20.6 255.15-21.15 255.57-21.7 256.42-21.7 257.27-21.7 257.82-20.95 258.37-20.2 258.37-18.57 258.37-16.95 257.3-12.23 256.22-7.5 254.22-2.45L254.22-2.45Q249.62 9.2 243.97 9.2L243.97 9.2Q239.82 9.2 239.82 6.25ZM260.47 7.65L260.47 7.65Q260.47 7.15 261.22 6.6L261.22 6.6Q263.97 4.6 263.97 1.3L263.97 1.3Q263.97-0.45 261.87-1.9L261.87-1.9Q261.22-2.4 261.22-2.73 261.22-3.05 262.35-4.48 263.47-5.9 264.07-5.9L264.07-5.9Q265.07-5.9 266.02-4.4 266.97-2.9 266.97-0.2 266.97 2.5 264.75 5.4 262.52 8.3 261.22 8.3L261.22 8.3Q260.47 8.3 260.47 7.65ZM286.34-4.03Q284.32-6.4 283.29-9.35 282.27-12.3 282.27-15.8 282.27-19.3 283.47-22.78 284.67-26.25 286.99-29.15 289.32-32.05 293.12-33.77 296.92-35.5 301.72-35.5L301.72-35.5Q304.77-35.5 307.67-34.55 310.57-33.6 312.22-32.65L312.22-32.65 313.82-31.7Q313.97-31.7 314.34-32.1 314.72-32.5 314.92-32.5L314.92-32.5Q315.52-32.5 315.52-31.7L315.52-31.7Q315.52-27.3 315.74-25.95 315.97-24.6 315.97-24.25L315.97-24.25Q315.97-23.05 315.27-23.05L315.27-23.05Q314.92-23.05 314.67-23.45 314.42-23.85 314.04-24.93 313.67-26 313.27-27L313.27-27Q312.47-29.05 310.32-30.5L310.32-30.5Q305.77-33.6 301.09-33.6 296.42-33.6 293.04-31.08 289.67-28.55 288.09-24.78 286.52-21 286.52-16.7L286.52-16.7Q286.52-9.35 290.57-5.03 294.62-0.7 300.54-0.7 306.47-0.7 311.02-5.85L311.02-5.85Q311.62-6.5 312.12-7.58 312.62-8.65 312.97-9.28 313.32-9.9 313.77-9.9L313.77-9.9Q314.57-9.9 314.57-9L314.57-9Q314.57-8.35 314.19-7.3 313.82-6.25 313.67-5.73 313.52-5.2 313.34-4.35 313.17-3.5 313.04-3.18 312.92-2.85 312.57-2.65L312.57-2.65Q305.32 1.15 299.22 1.15L299.22 1.15Q295.02 1.15 291.69-0.25 288.37-1.65 286.34-4.03ZM322.46-35.25L322.46-35.25 320.41-35.2Q319.76-35.2 319.76-35.77 319.76-36.35 321.89-36.52 324.01-36.7 325.36-37.02 326.71-37.35 327.06-37.35L327.06-37.35Q327.66-37.35 327.66-36.7L327.66-36.7Q327.66-36.6 326.16-28.43 324.66-20.25 324.66-17.55L324.66-17.55Q324.66-17 324.84-17 325.01-17 325.66-17.68 326.31-18.35 327.14-19.13 327.96-19.9 329.34-20.58 330.71-21.25 332.11-21.25L332.11-21.25Q336.56-21.25 336.56-15.6L336.56-15.6Q336.56-14.1 335.96-10.35 335.36-6.6 335.36-5.5L335.36-5.5Q335.36-3.2 336.56-3.2L336.56-3.2Q337.21-3.2 338.16-3.78 339.11-4.35 339.54-4.88 339.96-5.4 340.26-5.78 340.56-6.15 340.71-6.15L340.71-6.15Q341.21-6.15 341.21-5.75L341.21-5.75Q341.21-4.05 338.81-1.95 336.41 0.15 334.71 0.15L334.71 0.15Q332.26 0.15 332.26-4.5L332.26-4.5Q332.26-6.05 332.71-9.63 333.16-13.2 333.16-14.7L333.16-14.7Q333.16-18.6 330.31-18.6L330.31-18.6Q328.61-18.6 326.91-17.6L326.91-17.6Q324.41-16.1 323.61-11.3L323.61-11.3Q323.31-9.45 322.94-6.15 322.56-2.85 322.39-1.7 322.21-0.55 321.79-0.25 321.36 0.05 320.51 0.05L320.51 0.05Q318.86 0.05 318.86-1.15L318.86-1.15Q318.86-1.85 319.51-5.58 320.16-9.3 320.31-10.28 320.46-11.25 321.41-17.65 322.36-24.05 323.11-29 323.86-33.95 323.86-34.1L323.86-34.1Q323.86-35.25 322.46-35.25ZM351.16 0.6Q346.71 0.6 344.99-1.5 343.26-3.6 343.26-7.05 343.26-10.5 344.76-13.6 346.26-16.7 348.99-19.25 351.71-21.8 355.86-21.8L355.86-21.8Q357.66-21.8 358.94-20.75 360.21-19.7 360.21-18.28 360.21-16.85 359.61-15.73 359.01-14.6 358.11-13.85L358.11-13.85Q356.51-12.5 355.36-12.05L355.36-12.05Q352.46-10.75 347.51-10.7L347.51-10.7Q346.66-10.7 346.66-8.22 346.66-5.75 348.46-4.08 350.26-2.4 353.86-2.4L353.86-2.4Q355.96-2.4 358.36-4L358.36-4Q359.11-4.55 359.26-4.55L359.26-4.55Q359.86-4.55 359.86-4.05L359.86-4.05Q359.86-3 356.99-1.2 354.11 0.6 351.16 0.6L351.16 0.6ZM350.01-17.95Q349.01-16.9 348.19-15.05 347.36-13.2 347.36-12.38 347.36-11.55 347.81-11.55L347.81-11.55Q351.36-11.55 354.06-13.55 356.76-15.55 356.76-17.95L356.76-17.95Q356.76-19.2 355.89-19.75 355.01-20.3 354.11-20.3L354.11-20.3Q352.26-20.3 350.01-17.95L350.01-17.95ZM368.41 0.75Q365.51 0.75 364.43-0.98 363.36-2.7 363.36-6.03 363.36-9.35 366.26-13.95 369.16-18.55 372.91-20.35L372.91-20.35Q374.76-21.25 376.03-21.25 377.31-21.25 378.63-20.98 379.96-20.7 380.63-20.7 381.31-20.7 382.11-21.93 382.91-23.15 383.43-23.15 383.96-23.15 383.96-22.55 383.96-21.95 383.53-20.75 383.11-19.55 383.01-19.15 382.91-18.75 381.91-13.18 380.91-7.6 380.91-6.35 380.91-5.1 381.41-4.15 381.91-3.2 382.71-3.2 383.51-3.2 384.68-4.83 385.86-6.45 386.28-6.45 386.71-6.45 386.71-5.73 386.71-5 385.73-3.6 384.76-2.2 383.33-0.93 381.91 0.35 380.73 0.35 379.56 0.35 378.86-1.05 378.16-2.45 378.03-3.85 377.91-5.25 377.86-5.25 377.81-5.25 377.28-4.63 376.76-4 375.88-3.13 375.01-2.25 373.96-1.4L373.96-1.4Q371.31 0.75 368.41 0.75ZM367.11-8.7L367.11-8.7Q366.86-7.2 366.86-5.7 366.86-4.2 367.98-3.1 369.11-2 371.08-2 373.06-2 374.78-3.58 376.51-5.15 377.11-6.35 377.71-7.55 378.36-10.5L378.36-10.5Q379.71-17 379.71-18.07 379.71-19.15 378.61-19.58 377.51-20 376.16-20 374.81-20 373.06-18.9 371.31-17.8 370.21-15.95L370.21-15.95Q367.61-11.65 367.11-8.7ZM396.81 9.8L391.81 9.75 389.11 9.8 388.66 9.8Q387.81 9.8 387.81 9.13 387.81 8.45 388.83 8 389.86 7.55 389.98 7.2 390.11 6.85 391.56-4.5 393.01-15.85 393.56-18.5L393.56-18.5 393.56-18.6Q393.56-18.85 393.31-18.85 393.06-18.85 392.06-18.4 391.06-17.95 390.76-17.95L390.76-17.95Q390.11-17.95 390.11-18.55L390.11-18.55 390.11-18.75Q390.11-19.2 390.46-19.4L390.46-19.4Q391.06-19.65 391.63-19.85 392.21-20.05 392.53-20.18 392.86-20.3 393.13-20.35 393.41-20.4 393.56-20.55 393.71-20.7 393.83-20.7 393.96-20.7 394.01-20.95 394.06-21.2 394.08-21.28 394.11-21.35 394.18-21.8 394.26-22.25 394.36-22.78 394.46-23.3 394.63-24.4 394.81-25.5 394.88-25.88 394.96-26.25 395.16-26.8L395.16-26.8Q395.41-27.55 396.21-27.98 397.01-28.4 397.73-28.4 398.46-28.4 398.46-27.6 398.46-26.8 397.78-24.55 397.11-22.3 397.11-21.6L397.11-21.6 397.11-21.4Q397.11-21.15 397.28-21.15 397.46-21.15 397.96-21.2L397.96-21.2Q399.21-21.4 401.61-21.4L401.61-21.4Q410.46-21.4 410.46-14.7L410.46-14.7Q410.46-10.55 408.51-7.25L408.51-7.25Q408.11-6.45 407.86-6.1 407.61-5.75 407.36-5.33 407.11-4.9 406.93-4.67 406.76-4.45 406.43-4.08 406.11-3.7 405.81-3.4L405.81-3.4Q402.06 0 397.56 0L397.56 0 394.86-0.2Q394.41-0.2 394.26 0.05L394.26 0.05Q394.11 0.4 393.96 1.88 393.81 3.35 393.66 4.2L393.66 4.2Q393.36 6 393.36 6.45L393.36 6.45Q393.36 7.55 394.41 7.98 395.46 8.4 396.48 8.55 397.51 8.7 397.51 9.15L397.51 9.15Q397.51 9.8 396.81 9.8L396.81 9.8ZM398.41-20.15L398.41-20.15 397.21-20Q396.81-20 396.36-16.15L396.36-16.15 395.71-10.6Q394.71-3.1 394.71-2.73 394.71-2.35 394.91-2.1 395.11-1.85 395.81-1.6 396.51-1.35 397.56-1.35L397.56-1.35Q401.11-1.35 403.96-5.28 406.81-9.2 406.81-12.85L406.81-12.85Q406.81-14.8 406.08-16.23 405.36-17.65 404.38-18.38 403.41-19.1 402.11-19.5L402.11-19.5Q400.21-20.15 398.41-20.15Z" opacity="1" transform="matrix(1,0,0,1,0,0)" fill="#ff851b" class="slogan-text-1" data-fill-palette-color="secondary" id="text-1"></path></svg></g></svg></g></svg></g></svg></g><g><svg viewBox="0 0 403.3087633143471 403.308763314347" height="403.308763314347" width="403.3087633143471"><g><svg xmlns="http://www.w3.org/2000/svg" xmlns:xlink="http://www.w3.org/1999/xlink" version="1.1" x="0" y="0" viewBox="0 0 100.00000000000003 100" enable-background="new 0 0 100 100" xml:space="preserve" width="403.3087633143471" height="403.308763314347" class="icon-icon-0" data-fill-palette-color="accent" id="icon-0"><g fill="#ffffff" data-fill-palette-color="accent"><path d="M16 12.5c0-1.9-1.6-3.5-3.5-3.5S9 10.6 9 12.5s1.6 3.5 3.5 3.5S16 14.4 16 12.5zM10 12.5c0-1.4 1.1-2.5 2.5-2.5s2.5 1.1 2.5 2.5S13.9 15 12.5 15 10 13.9 10 12.5z" fill="#ffffff" data-fill-palette-color="accent"></path><path d="M14 12.5c0-0.8-0.7-1.5-1.5-1.5S11 11.7 11 12.5s0.7 1.5 1.5 1.5S14 13.3 14 12.5zM12 12.5c0-0.3 0.2-0.5 0.5-0.5s0.5 0.2 0.5 0.5S12.8 13 12.5 13 12 12.8 12 12.5z" fill="#ffffff" data-fill-palette-color="accent"></path><path d="M97 0H61c-1.7 0-3 1.3-3 3v28H47V10c0-2.8-2.2-5-5-5H10c-2.8 0-5 2.2-5 5v29c-2.8 0-5 2.2-5 5v51c0 2.8 2.2 5 5 5h32c2.8 0 5-2.2 5-5h51c3.9 0 7-3.1 7-7 0 0 0 0 0 0 0-0.1 0-0.2-0.1-0.4 0 0 0-0.1-0.1-0.1 0-0.1-0.1-0.1-0.1-0.2 0 0-0.1-0.1-0.1-0.1 0 0-0.1-0.1-0.1-0.1l-14.1-9.4c0.4-0.5 0.6-1.1 0.6-1.7v-4h11c1.7 0 3-1.3 3-3V3C100 1.3 98.7 0 97 0zM42 74h39V36H19v3h-3v-3c0-1.7 1.3-3 3-3h62c1.7 0 3 1.3 3 3v40c0 0.6-0.4 1-1 1H42V74zM7 10c0-1.7 1.3-3 3-3h32c1.7 0 3 1.3 3 3v21H19c-2.8 0-5 2.2-5 5v3H7V10zM40 95c0 1.7-1.3 3-3 3H5c-1.7 0-3-1.3-3-3V44c0-1.7 1.3-3 3-3h32c1.7 0 3 1.3 3 3V95zM37 39H20v-2h60v36H42V44C42 41.2 39.8 39 37 39zM93 93H42v-4h0.1c0.4 1.7 2 3 3.9 3h8c1.9 0 3.4-1.3 3.9-3h40C97.4 91.3 95.4 93 93 93zM44 88h12c0 1.1-0.9 2-2 2h-8C44.9 90 44 89.1 44 88zM95.7 87H57 43h-1v-8h41 0.7L95.7 87zM98 69c0 0.6-0.4 1-1 1H86V36c0-2.8-2.2-5-5-5H60v-6h38V69zM98 23H60V3c0-0.6 0.4-1 1-1h36c0.6 0 1 0.4 1 1V23z" fill="#ffffff" data-fill-palette-color="accent"></path><path d="M94 4H64c-1.1 0-2 0.9-2 2s0.9 2 2 2h30c1.1 0 2-0.9 2-2S95.1 4 94 4zM94 7H64c-0.6 0-1-0.4-1-1s0.4-1 1-1h30c0.6 0 1 0.4 1 1S94.6 7 94 7z" fill="#ffffff" data-fill-palette-color="accent"></path><path d="M94 10H64c-1.1 0-2 0.9-2 2s0.9 2 2 2h30c1.1 0 2-0.9 2-2S95.1 10 94 10zM94 13H64c-0.6 0-1-0.4-1-1s0.4-1 1-1h30c0.6 0 1 0.4 1 1S94.6 13 94 13z" fill="#ffffff" data-fill-palette-color="accent"></path><path d="M94 31c1.1 0 2-0.9 2-2 0-1.1-0.9-2-2-2s-2 0.9-2 2C92 30.1 92.9 31 94 31zM94 28c0.6 0 1 0.4 1 1s-0.4 1-1 1-1-0.4-1-1S93.4 28 94 28z" fill="#ffffff" data-fill-palette-color="accent"></path><path d="M50.9 57.6c0.1 0 0.3 0 0.4-0.1l14.1-14.1c0.2-0.2 0.2-0.5 0-0.7s-0.5-0.2-0.7 0L50.6 56.8c-0.2 0.2-0.2 0.5 0 0.7C50.7 57.6 50.8 57.6 50.9 57.6z" fill="#ffffff" data-fill-palette-color="accent"></path><path d="M50.9 62.5c0.1 0 0.3 0 0.4-0.1l14.1-14.1c0.2-0.2 0.2-0.5 0-0.7s-0.5-0.2-0.7 0L50.6 61.6c-0.2 0.2-0.2 0.5 0 0.7C50.7 62.5 50.8 62.5 50.9 62.5z" fill="#ffffff" data-fill-palette-color="accent"></path><path d="M4 88h34V44H4V88zM5 45h32v42H5V45z" fill="#ffffff" data-fill-palette-color="accent"></path><path d="M21 90c-1.7 0-3 1.3-3 3s1.3 3 3 3 3-1.3 3-3S22.7 90 21 90zM21 95c-1.1 0-2-0.9-2-2s0.9-2 2-2 2 0.9 2 2S22.1 95 21 95z" fill="#ffffff" data-fill-palette-color="accent"></path><path d="M18.5 43h5c0.3 0 0.5-0.2 0.5-0.5 0-0.3-0.2-0.5-0.5-0.5h-5c-0.3 0-0.5 0.2-0.5 0.5C18 42.8 18.2 43 18.5 43z" fill="#ffffff" data-fill-palette-color="accent"></path></g></svg></g></svg></g><g></g></svg></g></svg></g><defs></defs></svg><rect width="167.61600089338165" height="247.2" fill="none" stroke="none" visibility="hidden"></rect></g></svg></g></svg>